<svg width="83" height="104" viewBox="0 0 83 104" fill="none" xmlns="http://www.w3.org/2000/svg">
<path fill-rule="evenodd" clip-rule="evenodd" d="M71.2276 41.8624C74.2919 34.4315 76.872 26.626 82.2146 20.4479C82.5314 20.079 82.4899 19.5234 82.1181 19.2032C81.745 18.8862 81.1861 18.9244 80.8659 19.292C75.3992 25.6149 72.7189 33.5819 69.5844 41.1858C69.3968 41.6345 69.6164 42.1528 70.0703 42.3385C70.5229 42.5275 71.04 42.3111 71.2276 41.8624Z" fill="white"/>
<path fill-rule="evenodd" clip-rule="evenodd" d="M59.9841 38.3166C58.7126 35.1448 58.0674 31.9685 58.4469 28.5744C58.5014 28.0897 58.1497 27.6527 57.6636 27.5942C57.1763 27.5391 56.7369 27.8872 56.6836 28.3687C56.2706 32.0593 56.9549 35.5111 58.3362 38.959C58.5171 39.4134 59.0333 39.6382 59.4891 39.4586C59.9432 39.2821 60.1663 38.7677 59.9841 38.3166Z" fill="white"/>
<path fill-rule="evenodd" clip-rule="evenodd" d="M33.7958 35.7194C30.5012 33.2233 28.4128 29.9981 27.5621 25.9578C27.4615 25.4815 26.991 25.1724 26.5112 25.2711C26.0326 25.3665 25.7247 25.8331 25.8252 26.3095C26.7678 30.7814 29.0769 34.3555 32.7247 37.1193C33.1146 37.4163 33.6729 37.3402 33.9677 36.9553C34.2641 36.5672 34.187 36.013 33.7958 35.7194Z" fill="white"/>
<path fill-rule="evenodd" clip-rule="evenodd" d="M14.5712 70.7325C15.0833 71.6614 15.6794 72.5471 16.3611 73.3675C16.6645 73.7331 17.3398 74.4304 18.0219 74.7604C18.7475 75.1146 19.4783 75.1048 20.0621 74.5819C20.8369 73.887 21.0561 73.1787 20.9931 72.5432C20.9331 71.9314 20.5821 71.3362 20.0021 70.8228C18.8933 69.842 16.887 69.1542 15.6607 68.9737C15.2138 68.0208 14.8581 67.0275 14.594 66.0089C12.6269 58.4226 17.5498 50.2944 26.4912 46.0197C29.6214 44.524 34.7327 45.1895 40.0047 46.5395C48.2137 48.6405 56.7877 52.5346 59.3307 53.5947C59.9592 53.855 60.3588 53.9406 60.4467 53.9366C60.8762 53.9243 61.0773 53.6883 61.187 53.5116C61.3429 53.2545 61.3745 53.0138 61.3498 52.8005C61.3147 52.5115 61.1663 52.228 60.8557 52.0031C60.6836 51.8803 60.4227 51.765 60.1366 51.6626C59.9374 51.5936 59.7073 51.5505 59.5815 51.4569C58.7772 50.8536 58.0143 50.2057 57.2427 49.5621C54.6457 47.4058 52.3503 45.0256 50.1137 42.5021C43.0067 34.4845 35.339 26.4251 31.4778 16.2731C31.3045 15.8178 30.7924 15.5833 30.3339 15.7543C29.8766 15.9221 29.6458 16.4297 29.8182 16.8884C33.755 27.243 41.5374 35.4861 48.7849 43.6634C50.6876 45.8096 52.6327 47.8551 54.7607 49.752C50.3939 47.9648 44.2848 45.6592 38.5847 44.3863C33.5154 43.2539 28.7572 42.9769 25.7143 44.4306C15.9192 49.1132 10.7199 58.1314 12.8759 66.4395C13.1069 67.3283 13.4003 68.2033 13.7578 69.0501C6.23701 70.0741 0.942973 76.4181 1.43469 84.0113C1.46555 84.4987 1.88828 84.8686 2.37655 84.8411C2.86609 84.8103 3.23682 84.3942 3.20596 83.9069C2.76301 77.0646 7.68489 71.389 14.5712 70.7325ZM16.8337 71.0546C17.1108 71.4667 17.4094 71.8645 17.7276 72.2509C17.8991 72.4564 18.2378 72.8281 18.6143 73.0747C18.7029 73.1313 18.8523 73.1925 18.9219 73.2192C19.1219 73.0356 19.2445 72.879 19.2268 72.7061C19.206 72.4906 19.0291 72.317 18.8261 72.1371C18.317 71.6848 17.556 71.3095 16.8337 71.0546Z" fill="white"/>
</svg>
