<svg width="103" height="101" viewBox="0 0 103 101" fill="none" xmlns="http://www.w3.org/2000/svg">
<path fill-rule="evenodd" clip-rule="evenodd" d="M49.7982 81.6584C55.6145 87.2061 61.9554 92.4384 65.7788 99.656C66.0079 100.085 66.5409 100.247 66.974 100.017C67.4045 99.7839 67.5715 99.2491 67.3448 98.8176C63.4314 91.4318 56.9762 86.0477 51.0241 80.3718C50.6738 80.0344 50.1111 80.0513 49.7736 80.4071C49.4335 80.7606 49.4479 81.321 49.7982 81.6584Z" fill="white"/>
<path fill-rule="evenodd" clip-rule="evenodd" d="M57.1757 72.4628C60.5927 72.4264 63.787 72.9756 66.8132 74.5587C67.2452 74.7851 67.78 74.6156 68.0105 74.1837C68.2384 73.7494 68.0731 73.2137 67.6436 72.9897C64.3532 71.2678 60.8879 70.6554 57.1738 70.694C56.6847 70.6981 56.2883 71.0978 56.2906 71.5877C56.2906 72.0749 56.6892 72.4692 57.1757 72.4628Z" fill="white"/>
<path fill-rule="evenodd" clip-rule="evenodd" d="M69.0827 48.9936C72.6026 46.8268 76.3652 46.0484 80.4393 46.719C80.9197 46.7978 81.3782 46.4712 81.4601 45.9882C81.5445 45.5076 81.2211 45.0515 80.7406 44.9727C76.231 44.2315 72.0632 45.0892 68.1658 47.4882C67.7477 47.744 67.6164 48.292 67.8684 48.7062C68.1227 49.123 68.6672 49.2518 69.0827 48.9936Z" fill="white"/>
<path fill-rule="evenodd" clip-rule="evenodd" d="M43.4105 18.3921C42.3592 18.533 41.3178 18.7678 40.3061 19.106C39.8555 19.2563 38.961 19.6333 38.4063 20.1495C37.8133 20.6976 37.5577 21.3823 37.8336 22.1159C38.2007 23.0897 38.7815 23.5506 39.3967 23.7221C39.9886 23.8878 40.6706 23.7762 41.3593 23.4215C42.6751 22.7433 44.0428 21.1224 44.6553 20.0447C45.7054 19.9733 46.7601 20.0016 47.8051 20.1243C55.5888 21.0388 61.3819 28.5715 62.1276 38.4541C62.3879 41.9135 59.9161 46.4366 56.7482 50.8616C51.8165 57.7522 45.0811 64.3334 43.1719 66.3198C42.7016 66.8113 42.4771 67.1527 42.449 67.2361C42.3049 67.641 42.452 67.9138 42.577 68.0801C42.7602 68.3186 42.9731 68.4352 43.1808 68.4895C43.4629 68.5614 43.7809 68.5257 44.1031 68.3178C44.2798 68.2018 44.4818 68.0003 44.6809 67.7707C44.8173 67.61 44.9409 67.4112 45.0737 67.3278C45.9274 66.7967 46.8076 66.3203 47.687 65.8342C50.6375 64.1947 53.6875 62.9172 56.8498 61.7466C66.8973 58.0263 77.1867 53.7986 88.0479 53.8768C88.5351 53.8802 88.9392 53.4878 88.9458 52.9985C88.9551 52.5115 88.5656 52.1125 88.0756 52.1071C76.9981 52.0259 66.4958 56.294 56.2487 60.0874C53.5591 61.0835 50.9479 62.1556 48.409 63.452C51.6565 60.0291 56.0184 55.1699 59.2696 50.318C62.1613 46.0031 64.143 41.6684 63.8902 38.3056C63.0735 27.4795 56.5509 19.3667 48.0261 18.3669C47.114 18.2603 46.1921 18.2169 45.2733 18.2434C47.043 10.8623 43.0474 3.6299 35.7917 1.33784C35.3263 1.19008 34.8283 1.4501 34.6771 1.91518C34.5285 2.38263 34.7821 2.87889 35.2475 3.02666C41.7856 5.0922 45.293 11.7357 43.4105 18.3921ZM42.2908 20.3843C41.8063 20.4933 41.3274 20.6276 40.8519 20.7842C40.5982 20.8696 40.1291 21.0507 39.7629 21.3123C39.678 21.3744 39.567 21.4914 39.5168 21.5466C39.6155 21.7995 39.7171 21.9705 39.8846 22.0166C40.093 22.0754 40.3189 21.9734 40.5602 21.8493C41.1661 21.5386 41.7916 20.9653 42.2908 20.3843Z" fill="white"/>
</svg>
