<svg width="27" height="30" viewBox="0 0 27 30" fill="none" xmlns="http://www.w3.org/2000/svg">
<path fill-rule="evenodd" clip-rule="evenodd" d="M9.03383 27.9961C6.45572 27.2624 3.75652 26.8922 1.13813 26.5532C0.574169 26.4821 0.0505691 26.8788 0.0102861 27.4376C-0.0702798 27.9969 0.332786 28.5084 0.856464 28.5795C3.39429 28.9059 6.01245 29.2552 8.46971 29.9616C8.99339 30.1148 9.55758 29.7994 9.71872 29.2568C9.87985 28.7147 9.55751 28.1497 9.03383 27.9961Z" fill="white"/>
<path fill-rule="evenodd" clip-rule="evenodd" d="M16.8485 17.5934C12.6993 13.2993 8.02651 9.55791 3.95793 5.14861C3.59539 4.73681 2.95086 4.71475 2.54803 5.09918C2.1452 5.48402 2.10508 6.13113 2.50791 6.54293C6.57649 10.9649 11.2493 14.7185 15.3985 19.0253C15.8013 19.4273 16.4457 19.433 16.8485 19.0375C17.211 18.6425 17.2513 17.9953 16.8485 17.5934Z" fill="white"/>
<path fill-rule="evenodd" clip-rule="evenodd" d="M24.6236 1.0768C24.7445 3.53453 24.8651 5.99226 24.986 8.45041C24.986 9.01336 25.4696 9.44804 26.0335 9.42067C26.5975 9.39289 27.0001 8.91368 27.0001 8.35032C26.8793 5.8885 26.7586 3.42708 26.6378 0.965673C26.5975 0.402714 26.114 -0.0291052 25.5501 0.00153479C25.0264 0.0321748 24.5834 0.514245 24.6236 1.0768Z" fill="white"/>
</svg>
