<svg width="20" height="22" viewBox="0 0 20 22" fill="none" xmlns="http://www.w3.org/2000/svg">
<path fill-rule="evenodd" clip-rule="evenodd" d="M7.7 1.4C7.35522 1.4 7.02456 1.53696 6.78076 1.78076C6.53696 2.02456 6.4 2.35522 6.4 2.7V4H13V2.7C13 2.35522 12.863 2.02456 12.6192 1.78076C12.3754 1.53696 12.0448 1.4 11.7 1.4H7.7ZM14.4 4V2.7C14.4 1.98392 14.1155 1.29716 13.6092 0.790812C13.1028 0.284463 12.4161 0 11.7 0H7.7C6.98392 0 6.29716 0.284463 5.79081 0.790812C5.28446 1.29716 5 1.98392 5 2.7V4H0.7C0.313401 4 0 4.3134 0 4.7C0 5.0866 0.313401 5.4 0.7 5.4H2V18.7C2 19.4161 2.28446 20.1028 2.79081 20.6092C3.29716 21.1155 3.98391 21.4 4.7 21.4H14.7C15.4161 21.4 16.1028 21.1155 16.6092 20.6092C17.1155 20.1028 17.4 19.4161 17.4 18.7V5.4H18.7C19.0866 5.4 19.4 5.0866 19.4 4.7C19.4 4.3134 19.0866 4 18.7 4H14.4ZM3.4 5.4V18.7C3.4 19.0448 3.53696 19.3754 3.78076 19.6192C4.02456 19.863 4.35522 20 4.7 20H14.7C15.0448 20 15.3754 19.863 15.6192 19.6192C15.863 19.3754 16 19.0448 16 18.7V5.4H3.4ZM7.7 9C8.0866 9 8.4 9.3134 8.4 9.7V15.7C8.4 16.0866 8.0866 16.4 7.7 16.4C7.3134 16.4 7 16.0866 7 15.7V9.7C7 9.3134 7.3134 9 7.7 9ZM11.7 9C12.0866 9 12.4 9.3134 12.4 9.7V15.7C12.4 16.0866 12.0866 16.4 11.7 16.4C11.3134 16.4 11 16.0866 11 15.7V9.7C11 9.3134 11.3134 9 11.7 9Z" fill="#2B2B2B"/>
</svg>
