<svg width="45" height="45" viewBox="0 0 45 45" fill="none" xmlns="http://www.w3.org/2000/svg">
<path fill-rule="evenodd" clip-rule="evenodd" d="M42.6053 14.1615C34.1594 29.8664 17.2879 36.2514 1.61787 27.4098C1.09622 27.1154 0.434695 27.2995 0.140284 27.8147C-0.154126 28.3391 0.0299 29.0015 0.551559 29.296C17.3477 38.7815 35.4622 32.0193 44.5153 15.1919C44.7987 14.6675 44.6009 14.005 44.0737 13.7197C43.5465 13.4437 42.8887 13.637 42.6053 14.1615Z" fill="white"/>
<path d="M14.8049 20.6743C16.5496 20.6743 17.9639 19.26 17.9639 17.5154C17.9639 15.7707 16.5496 14.3564 14.8049 14.3564C13.0603 14.3564 11.646 15.7707 11.646 17.5154C11.646 19.26 13.0603 20.6743 14.8049 20.6743Z" fill="white"/>
<path d="M27.8821 17.314C29.5927 17.314 30.9794 15.9274 30.9794 14.2168C30.9794 12.5063 29.5927 11.1196 27.8821 11.1196C26.1716 11.1196 24.7849 12.5063 24.7849 14.2168C24.7849 15.9274 26.1716 17.314 27.8821 17.314Z" fill="white"/>
</svg>
