<svg width="18" height="19" viewBox="0 0 18 19" fill="none" xmlns="http://www.w3.org/2000/svg">
<path fill-rule="evenodd" clip-rule="evenodd" d="M6.02255 17.7306C4.30381 17.2659 2.50435 17.0315 0.758754 16.8167C0.382779 16.7717 0.0337127 17.023 0.0068574 17.3769C-0.0468532 17.7311 0.221857 18.0551 0.570976 18.1001C2.26286 18.3068 4.0083 18.528 5.64647 18.9754C5.99559 19.0724 6.37172 18.8727 6.47914 18.5291C6.58657 18.1857 6.37167 17.8279 6.02255 17.7306Z" fill="#2B2B2B"/>
<path fill-rule="evenodd" clip-rule="evenodd" d="M11.2324 11.1425C8.46635 8.42288 5.35113 6.05336 2.63874 3.2608C2.39705 3 1.96736 2.98602 1.69881 3.2295C1.43026 3.47323 1.40351 3.88307 1.67206 4.14387C4.38444 6.94445 7.49966 9.32173 10.2658 12.0493C10.5343 12.3039 10.9639 12.3076 11.2324 12.0571C11.4741 11.8069 11.501 11.3971 11.2324 11.1425Z" fill="#2B2B2B"/>
<path fill-rule="evenodd" clip-rule="evenodd" d="M16.4156 0.68197C16.4962 2.23854 16.5766 3.7951 16.6572 5.35192C16.6572 5.70846 16.9796 5.98376 17.3556 5.96643C17.7315 5.94883 17.9999 5.64533 17.9999 5.28853C17.9194 3.72938 17.839 2.17049 17.7584 0.611593C17.7315 0.255052 17.4092 -0.0184333 17.0333 0.000972033C16.6841 0.0203774 16.3888 0.325689 16.4156 0.68197Z" fill="#2B2B2B"/>
</svg>
