<svg width="16" height="17" viewBox="0 0 16 17" fill="none" xmlns="http://www.w3.org/2000/svg">
<path fill-rule="evenodd" clip-rule="evenodd" d="M9.36322 3.34856C9.40876 3.07838 9.44306 2.81127 9.46522 2.54413C9.49862 2.14341 9.47797 1.73964 9.48981 1.33892C9.49497 1.16892 9.51531 0.725713 9.50712 0.661963C9.43274 0.106427 8.98437 0.021417 8.85323 0.00623842C8.78978 -0.00286873 8.13832 -0.0756934 7.99776 0.646807C7.82534 1.5302 7.77008 2.41965 7.8311 3.2909C7.68872 4.03162 7.44525 4.76928 7.12377 5.43714C5.84452 8.09339 3.40685 8.35143 0.765781 8.32714C0.359603 8.32107 0.0223217 8.63982 0.00107193 9.04357C-0.0201778 9.45035 0.282178 9.80249 0.686535 9.83892C2.1628 9.9816 4.78204 11.1655 5.68759 12.398C5.87702 12.6561 5.98721 13.2784 6.13292 13.8886C6.33632 14.7356 6.57826 15.5734 6.84935 15.9255C6.89003 15.9802 7.38455 16.5388 7.53209 16.6207C7.88666 16.815 8.17049 16.7027 8.33168 16.5995C8.49288 16.4963 8.67533 16.2929 8.74819 15.9559C8.82438 15.6038 8.76003 14.8812 8.77187 14.7264C8.81497 14.1648 8.92729 13.0629 9.15648 12.1157C9.28004 11.6057 9.41179 11.1352 9.62976 10.9014C10.4366 10.0362 11.7268 10.1638 12.8133 10.3064C12.9381 10.3216 13.0628 10.3398 13.1873 10.355C13.6296 10.4856 14.0992 10.5827 14.5956 10.6404C15.3451 10.7284 15.4683 10.0393 15.475 9.99375C15.489 9.89357 15.5409 9.37751 14.976 9.17108C14.9143 9.14983 14.4596 9.04964 14.2844 9.01018C14.0403 8.95554 13.7935 8.91305 13.5458 8.87359C10.987 8.07823 9.59728 5.84392 9.36322 3.34856ZM8.48499 6.10805C7.51903 8.10555 6.05308 9.0709 4.31544 9.50804C5.4004 10.0757 6.38762 10.7861 6.91068 11.4995C7.10921 11.7697 7.29135 12.313 7.45558 12.9232C7.54453 12.3555 7.66473 11.7514 7.8235 11.2353C8.00413 10.6464 8.2473 10.1577 8.51869 9.86627C9.04266 9.30466 9.7002 8.99198 10.4072 8.83716C9.56086 8.08734 8.9191 7.15234 8.48499 6.10805Z" fill="black" fill-opacity="0.26"/>
</svg>
